<svg xmlns="http://www.w3.org/2000/svg" version="1.1" xmlns:xlink="http://www.w3.org/1999/xlink" xmlns:svgjs="http://svgjs.dev/svgjs" width="1000" height="421" viewBox="0 0 1000 421"><g transform="matrix(1,0,0,1,-0.6060302761241019,-0.24679571221025753)"><svg viewBox="0 0 396 167" data-background-color="#ffffff" preserveAspectRatio="xMidYMid meet" height="421" width="1000" xmlns="http://www.w3.org/2000/svg" xmlns:xlink="http://www.w3.org/1999/xlink"><g id="tight-bounds" transform="matrix(1,0,0,1,0.23998798934513843,0.09789758655371372)"><svg viewBox="0 0 395.52 166.80420389439004" height="166.80420389439004" width="395.52"><g><svg viewBox="0 0 395.52 166.80420389439004" height="166.80420389439004" width="395.52"><g transform="matrix(1,0,0,1,0,122.74210253468671)"><svg viewBox="0 0 395.52 44.062101359703334" height="44.062101359703334" width="395.52"><g id="textblocktransform"><svg viewBox="0 0 395.52 44.062101359703334" height="44.062101359703334" width="395.52" id="textblock"><g><svg viewBox="0 0 395.52 44.062101359703334" height="44.062101359703334" width="395.52"><g transform="matrix(1,0,0,1,0,0)"><svg width="395.52" viewBox="4.449999809265137 -35.75 324.72998046875 36.04999923706055" height="44.062101359703334" data-palette-color="#093d65"><g class="undefined-text-0" data-fill-palette-color="primary" id="text-0"><path d="M7.95 0L4.45 0 4.45-35.5 27.75-35.5 27.75-32.4 7.95-32.4 7.95-19.35 24.65-19.35 24.65-16.45 7.95-16.45 7.95 0ZM30.05 0L44.9-35.5 47.85-35.5 62.6 0 58.9 0 54.3-11.1 38.35-11.1 33.8 0 30.05 0ZM39.1-13.85L53.5-13.85 46.35-31.4 39.1-13.85ZM91.7 0L67.7 0 67.7-35.5 71.2-35.5 71.2-3.1 91.7-3.1 91.7 0ZM119.29-31.65L117.59-28.85Q116.84-29.7 115.84-30.38 114.84-31.05 113.59-31.55 112.34-32.05 110.92-32.35 109.49-32.65 107.89-32.65L107.89-32.65Q103.24-32.65 101.07-30.88 98.89-29.1 98.89-26.05L98.89-26.05Q98.89-23.95 99.92-22.75 100.94-21.55 103.14-20.8 105.34-20.05 108.74-19.25L108.74-19.25Q112.54-18.45 115.29-17.35 118.04-16.25 119.54-14.38 121.04-12.5 121.04-9.3L121.04-9.3Q121.04-6.85 120.09-5.05 119.14-3.25 117.44-2.05 115.74-0.85 113.39-0.28 111.04 0.3 108.24 0.3L108.24 0.3Q105.49 0.3 102.97-0.28 100.44-0.85 98.19-1.98 95.94-3.1 93.99-4.85L93.99-4.85 95.74-7.7Q96.69-6.7 98.02-5.83 99.34-4.95 100.97-4.25 102.59-3.55 104.47-3.18 106.34-2.8 108.34-2.8L108.34-2.8Q112.59-2.8 114.97-4.35 117.34-5.9 117.34-8.95L117.34-8.95Q117.34-11.15 116.14-12.48 114.94-13.8 112.54-14.65 110.14-15.5 106.64-16.3L106.64-16.3Q102.94-17.15 100.39-18.2 97.84-19.25 96.57-20.98 95.29-22.7 95.29-25.55L95.29-25.55Q95.29-28.85 96.92-31.13 98.54-33.4 101.39-34.58 104.24-35.75 107.94-35.75L107.94-35.75Q110.29-35.75 112.32-35.27 114.34-34.8 116.07-33.9 117.79-33 119.29-31.65L119.29-31.65ZM130.69-3.1L151.04-3.1 151.04 0 127.19 0 127.19-35.5 150.59-35.5 150.59-32.4 130.69-32.4 130.69-19.6 148.04-19.6 148.04-16.65 130.69-16.65 130.69-3.1Z" fill="#093d65" data-fill-palette-color="primary"></path><path d="M177.94-31.65L176.24-28.85Q175.49-29.7 174.49-30.38 173.49-31.05 172.24-31.55 170.99-32.05 169.57-32.35 168.14-32.65 166.54-32.65L166.54-32.65Q161.89-32.65 159.72-30.88 157.54-29.1 157.54-26.05L157.54-26.05Q157.54-23.95 158.57-22.75 159.59-21.55 161.79-20.8 163.99-20.05 167.39-19.25L167.39-19.25Q171.19-18.45 173.94-17.35 176.69-16.25 178.19-14.38 179.69-12.5 179.69-9.3L179.69-9.3Q179.69-6.85 178.74-5.05 177.79-3.25 176.09-2.05 174.39-0.85 172.04-0.28 169.69 0.3 166.89 0.3L166.89 0.3Q164.14 0.3 161.62-0.28 159.09-0.85 156.84-1.98 154.59-3.1 152.64-4.85L152.64-4.85 154.39-7.7Q155.34-6.7 156.67-5.83 157.99-4.95 159.62-4.25 161.24-3.55 163.12-3.18 164.99-2.8 166.99-2.8L166.99-2.8Q171.24-2.8 173.62-4.35 175.99-5.9 175.99-8.95L175.99-8.95Q175.99-11.15 174.79-12.48 173.59-13.8 171.19-14.65 168.79-15.5 165.29-16.3L165.29-16.3Q161.59-17.15 159.04-18.2 156.49-19.25 155.21-20.98 153.94-22.7 153.94-25.55L153.94-25.55Q153.94-28.85 155.57-31.13 157.19-33.4 160.04-34.58 162.89-35.75 166.59-35.75L166.59-35.75Q168.94-35.75 170.97-35.27 172.99-34.8 174.72-33.9 176.44-33 177.94-31.65L177.94-31.65ZM189.34 0L185.84 0 185.84-35.5 200.54-35.5Q202.84-35.5 204.76-34.55 206.69-33.6 208.09-31.98 209.49-30.35 210.29-28.38 211.09-26.4 211.09-24.35L211.09-24.35Q211.09-21.45 209.81-18.88 208.54-16.3 206.24-14.7 203.94-13.1 200.84-13.1L200.84-13.1 189.34-13.1 189.34 0ZM189.34-32.4L189.34-16.2 200.69-16.2Q202.79-16.2 204.34-17.35 205.89-18.5 206.74-20.35 207.59-22.2 207.59-24.35L207.59-24.35Q207.59-26.55 206.59-28.4 205.59-30.25 203.96-31.33 202.34-32.4 200.39-32.4L200.39-32.4 189.34-32.4ZM220.44 0L216.94 0 216.94-35.5 231.94-35.5Q234.24-35.5 236.14-34.55 238.04-33.6 239.46-31.98 240.89-30.35 241.66-28.38 242.44-26.4 242.44-24.35L242.44-24.35Q242.44-21.8 241.46-19.55 240.49-17.3 238.71-15.75 236.94-14.2 234.54-13.7L234.54-13.7 243.24 0 239.29 0 230.94-13.1 220.44-13.1 220.44 0ZM220.44-32.4L220.44-16.2 232.04-16.2Q234.14-16.2 235.69-17.35 237.24-18.5 238.09-20.38 238.94-22.25 238.94-24.35L238.94-24.35Q238.94-26.5 237.96-28.33 236.99-30.15 235.36-31.28 233.74-32.4 231.74-32.4L231.74-32.4 220.44-32.4ZM253.08 0L249.58 0 249.58-35.5 253.08-35.5 253.08 0ZM288.43 0L265.48-29.05 265.48 0 261.98 0 261.98-35.5 264.88-35.5 288.18-5.9 288.18-35.45 291.68-35.45 291.68 0 288.43 0ZM314.83 0.25L314.83 0.25Q311.28 0.25 308.23-1.28 305.18-2.8 302.93-5.4 300.68-8 299.45-11.2 298.23-14.4 298.23-17.8L298.23-17.8Q298.23-21.4 299.45-24.63 300.68-27.85 302.88-30.35 305.08-32.85 308.08-34.3 311.08-35.75 314.63-35.75L314.63-35.75Q319.88-35.75 323.18-33.6 326.48-31.45 328.18-28L328.18-28 325.48-26.2Q323.78-29.5 320.93-31.05 318.08-32.6 314.58-32.6L314.58-32.6Q311.63-32.6 309.25-31.35 306.88-30.1 305.18-28 303.48-25.9 302.6-23.25 301.73-20.6 301.73-17.75L301.73-17.75Q301.73-14.75 302.73-12.08 303.73-9.4 305.58-7.33 307.43-5.25 309.85-4.08 312.28-2.9 315.08-2.9L315.08-2.9Q318.33-2.9 321.23-4.53 324.13-6.15 326.78-9.55L326.78-9.55 326.78-5.85Q321.73 0.25 314.83 0.25ZM326.23 0L326.23-14.75 318.33-14.75 318.33-17.45 329.18-17.45 329.18 0 326.23 0Z" fill="#f98e54" data-fill-palette-color="secondary"></path></g></svg></g></svg></g></svg></g></svg></g><g transform="matrix(1,0,0,1,146.79095337324998,0)"><svg viewBox="0 0 101.93809325350006 101.93809325350006" height="101.93809325350006" width="101.93809325350006"><g><svg></svg></g><g id="icon-0"><svg viewBox="0 0 101.93809325350006 101.93809325350006" height="101.93809325350006" width="101.93809325350006"><g><path d="M0 50.969c0-28.149 22.82-50.969 50.969-50.969 28.149 0 50.969 22.82 50.969 50.969 0 28.149-22.82 50.969-50.969 50.969-28.149 0-50.969-22.82-50.969-50.969zM50.969 97.965c25.955 0 46.995-21.041 46.996-46.996 0-25.955-21.041-46.995-46.996-46.995-25.955 0-46.995 21.041-46.995 46.995 0 25.955 21.041 46.995 46.995 46.996z" data-fill-palette-color="accent" fill="#f98e54" stroke="transparent"></path><ellipse rx="50.45935616048253" ry="50.45935616048253" cx="50.96904662675003" cy="50.96904662675003" fill="#f98e54" stroke="transparent" stroke-width="0" fill-opacity="1" data-fill-palette-color="accent"></ellipse></g><g transform="matrix(1,0,0,1,27.06166331420245,26.380177039265906)"><svg viewBox="0 0 47.81476662509516 49.177739174968245" height="49.177739174968245" width="47.81476662509516"><g><svg xmlns="http://www.w3.org/2000/svg" xmlns:xlink="http://www.w3.org/1999/xlink" version="1.1" x="0" y="0" viewBox="1.3854713439941406 0 97.2289810180664 100.00051879882812" enable-background="new 0 0 100 100" xml:space="preserve" width="47.81476662509516" height="49.177739174968245" class="icon-s-0" data-fill-palette-color="quaternary" id="s-0"><path fill-rule="evenodd" clip-rule="evenodd" d="M34.299 89.102C18.86 84.527-25.674 64.976 24.795 0c27.291 18.521 37.807 34.817 39.754 48.283-13.054 4.675-22.041 13.764-20.921 30.208-7.11-16.909-12.688-40.295-15.081-54.876C27.347 40.648 29.86 70.944 34.299 89.102z" fill="#ffffff" data-fill-palette-color="quaternary"></path><path fill-rule="evenodd" clip-rule="evenodd" d="M51.772 93.184C48.014 82.738 40.207 48.778 98.54 50.65c1.712 53.348-26.544 51.379-39.376 47.778 5.312-10.34 12.15-19.672 20.803-27.551C69.352 76.754 59.899 84.209 51.772 93.184z" fill="#ffffff" data-fill-palette-color="quaternary"></path></svg></g></svg></g></svg></g></svg></g><g></g></svg></g><defs></defs></svg><rect width="395.52" height="166.80420389439004" fill="none" stroke="none" visibility="hidden"></rect></g></svg></g></svg>